<?xml version="1.0" encoding="UTF-8"?>
<svg id="Layer_2" data-name="Layer 2" xmlns="http://www.w3.org/2000/svg" viewBox="0 0 1277.63 273.9">
    <defs>
        <style>
            .cls-1 {
            fill: #f7fcfd;
            }

            .cls-2 {
            fill: #51bd94;
            }
        </style>
    </defs>
    <g id="Logos">
        <g>
            <path class="cls-1" d="M502.62,272.58c-41.29,0-65.03-25.13-65.17-68.97,0-.27.96-10.98.96-10.98.21-2.18,1.87-3.95,4.05-4.28l37.35-5.66c.24-.04.48-.05.72-.05,1.15,0,2.26.41,3.12,1.15,1.06.91,1.67,2.23,1.67,3.63v18.35c0,17.74,7.78,20.19,16.2,20.19s16.2-2.44,16.2-20.19c0-22.16-15.37-36.18-33.16-52.41-21.57-19.67-46-41.96-46-83.78C438.55,25.49,462.03.2,502.99.2s64.44,25.29,64.44,69.38h0c0,7.07-5.78,12.85-12.85,12.85h-30.23c-2.64,0-4.79-2.14-4.79-4.78v-10.64c0-18.06-7.43-20.55-15.46-20.55s-15.46,2.49-15.46,20.55c0,22.15,15.37,36.17,33.16,52.41,21.57,19.66,46,41.95,46,83.77,0,44.09-23.76,69.38-65.18,69.38Z"/>
            <path class="cls-1" d="M890.34,272.58c-3.94,0-7.14-3.19-7.14-7.14l-.02-254.1c0-11.18,11.26-11.18,11.26-11.18h52.75c45.34,0,67.38,21.8,67.38,66.64v20.56c0,23.37-6.47,40.74-19.22,51.62l-.62.53c-.43.37-.42,1.03.02,1.38l.63.51c17.53,14.13,15.04,38.02,15.04,54.77v35.87c0,20.83,1.34,25.52,3.97,31.76.88,2.07.6,4.49-.73,6.3-1.21,1.65-2.96,2.45-5,2.45l-.77.02h-37.37c-7.49,0-9.59-16.15-9.59-36.39v-41.13c0-26.76-9.07-26.84-20.49-26.84h-6.88c-.5,0-.9.4-.9.9v96.98c0,3.54-.98,6.49-6.43,6.49h-35.91ZM943.92,123.08c13.55,0,19.85-8.21,19.85-25.82v-22.61c0-17.41-5.27-25.17-17.08-25.17h-8.15c-3.24.03-5.86,2.66-5.86,5.9v63.23c0,4.46,3.97,4.46,3.97,4.46h7.28Z"/>
            <path class="cls-2" d="M1173.15,186.21h-29.22c-2.31,0-4.73,1.84-4.78,4.15l.02,17.02c-.03,1.59.83,3.11,2.33,3.88.64.33,1.37.45,2.09.45h4.2c2.56,0,4.63,2.07,4.63,4.63v16.66c0,7.57-6.34,13.34-15.44,13.34-8.5,0-14.93-5.2-14.93-13.34v-80.75c0-14.29,13.03-13.55,13.03-13.55,0,0,12.01-.84,12.01,13.55v7.06c0,2.52,2.05,4.57,4.57,4.57h16.47c2.52,0,4.57-2.05,4.57-4.57v-9.63c0-39.82-37.24-37.77-37.24-37.77,0,0-39.28-.02-39.28,41.84v77.76c0,26.59,14.32,41.84,39.28,41.84s42.33-16.04,42.33-41.84v-40.66c0-2.56-2.07-4.63-4.63-4.63Z"/>
            <path class="cls-2" d="M1055.75,236.54c-10.3,0-18.68,8.38-18.68,18.68s8.38,18.68,18.68,18.68,18.68-8.38,18.68-18.68-8.38-18.68-18.68-18.68Z"/>
            <path class="cls-1" d="M728.5,2.49c-1.22-1.46-3-2.29-4.9-2.29h-134.36c-1.9,0-3.68.83-4.9,2.29-1.22,1.46-1.73,3.37-1.39,5.24l6.68,37.14c.55,3.04,3.2,5.26,6.29,5.26h32.51v216.46c0,3.52,2.87,6.39,6.39,6.39h43.21c3.52,0,6.39-2.87,6.39-6.39V50.13h32.51c3.1,0,5.74-2.22,6.29-5.26l6.68-37.14c.34-1.87-.17-3.77-1.39-5.24Z"/>
            <path class="cls-1" d="M421.58,270.49c-1.22,1.46-3,2.29-4.9,2.29h-102.73c-3.55,0-6.42-2.88-6.41-6.43l.16-43.49V6.39c0-3.53,2.86-6.39,6.39-6.39h35.06c3.52,0,6.33,2.87,6.33,6.39l.92,216.46h53.6c3.1,0,5.74,2.22,6.29,5.26l6.68,37.14c.34,1.87-.17,3.77-1.39,5.24Z"/>
            <path class="cls-1" d="M284.32,270.49c-1.22,1.46-3,2.29-4.9,2.29h-102.73c-3.55,0-6.42-2.88-6.41-6.43l.16-43.49V6.39c0-3.53,2.86-6.39,6.39-6.39h35.06c3.52,0,6.33,2.87,6.33,6.39l.92,216.46h53.6c3.1,0,5.74,2.22,6.29,5.26l6.68,37.14c.34,1.87-.17,3.77-1.39,5.24Z"/>
            <path class="cls-2" d="M1273,186.21h-29.22c-2.31,0-4.73,1.84-4.78,4.15l.02,17.02c-.03,1.59.83,3.11,2.33,3.88.64.33,1.37.45,2.09.45h4.2c2.56,0,4.63,2.07,4.63,4.63v16.66c0,7.57-6.34,13.34-15.44,13.34-8.5,0-14.93-5.2-14.93-13.34v-80.75c0-14.29,13.03-13.55,13.03-13.55,0,0,12.01-.84,12.01,13.55v7.06c0,2.52,2.05,4.57,4.57,4.57h16.47c2.52,0,4.57-2.05,4.57-4.57v-9.63c0-39.82-37.24-37.77-37.24-37.77,0,0-39.28-.02-39.28,41.84v77.76c0,26.59,14.32,41.84,39.28,41.84s42.33-16.04,42.33-41.84v-40.66c0-2.56-2.07-4.63-4.63-4.63Z"/>
            <path class="cls-1" d="M99.29,266.76c.46,3.1,3.3,5.82,6.41,5.82h36.21c1.88,0,3.59-1.23,4.79-2.67,1.2-1.45,1.71-3.35,1.38-5.22L102.12,5.42c-.54-3.05-3.16-5.26-6.24-5.26h-43.47c-3.07,0-5.7,2.21-6.24,5.26C46.18,5.42.09,265.12,0,265.78c0,1.5.5,2.96,1.47,4.13,1.19,1.43,2.87,2.64,4.72,2.67.07,0,.13,0,.2,0h36.21c3.11,0,5.95-2.73,6.42-5.82l5.96-40.11c.13-.86.86-1.5,1.73-1.5h34.76c.78,0,1.45.52,1.67,1.26.13.24.22.5.26.79l5.88,39.56ZM89.03,176.25h-29.88c-1.06,0-1.87-.94-1.73-1.99l14.55-109.08c.12-.87,1.3-1.53,2.17-1.53s1.95.65,2.07,1.53l14.55,109.08c.14,1.06-.68,1.99-1.73,1.99Z"/>
            <path class="cls-1" d="M861,263.92L815.17,5.42c-.54-3.05-3.16-5.26-6.24-5.26h-43.59c-3.07,0-5.7,2.21-6.24,5.26l-45.97,259.27s-2.34,7.89,6.17,7.89h36.34c3.11,0,5.95-2.73,6.42-5.82l5.88-39.56c.17-1.17,1.18-2.04,2.37-2.04h33.64c1.19,0,2.2.87,2.37,2.04l5.88,39.56c.46,3.1,3.3,5.82,6.42,5.82h36.34c7.86,0,6.04-8.66,6.04-8.66ZM814.94,139.65l-11.3,10.6c-.65.61-.91,1.52-.67,2.37l5.13,18.96c.42,1.57-.24,3.23-1.62,4.07-1.39.84-3.16.67-4.36-.42l-12.94-11.82c-.92-.84-2.33-.84-3.24,0l-12.89,11.87c-.69.63-1.58.96-2.47.96-.67,0-1.33-.18-1.93-.55-1.39-.87-2.03-2.56-1.57-4.12l5.5-18.71c.27-.91-.03-1.89-.75-2.5l-12.36-10.5c-1.16-.99-1.59-2.6-1.06-4.03.52-1.44,1.89-2.39,3.42-2.39l14.9-.02c1.22,0,2.24-.91,2.38-2.12l4.34-37.8c.22-1.82,1.77-3.2,3.61-3.21h.79c1.83.01,3.36,1.37,3.58,3.19l4.47,37.78c.14,1.21,1.17,2.12,2.38,2.12l14.16-.02c1.62-.17,2.85.9,3.4,2.3.55,1.4.2,2.98-.89,4Z"/>
        </g>
    </g>
</svg>