<?xml version="1.0" encoding="utf-8"?>
<!-- Generator: Adobe Illustrator 27.9.6, SVG Export Plug-In . SVG Version: 9.03 Build 54986)  -->
<svg version="1.1"
	 id="svg8" xmlns:svg="http://www.w3.org/2000/svg" xmlns:inkscape="http://www.inkscape.org/namespaces/inkscape" xmlns:rdf="http://www.w3.org/1999/02/22-rdf-syntax-ns#" xmlns:sodipodi="http://sodipodi.sourceforge.net/DTD/sodipodi-0.dtd" xmlns:cc="http://creativecommons.org/ns#" xmlns:dc="http://purl.org/dc/elements/1.1/" inkscape:version="0.92.1 r15371"
	 xmlns="http://www.w3.org/2000/svg" xmlns:xlink="http://www.w3.org/1999/xlink" x="0px" y="0px" viewBox="0 0 775.4 187.7"
	 style="enable-background:new 0 0 775.4 187.7;" xml:space="preserve">
<style type="text/css">
	.st0{fill:#030826;}
	.st1{fill:#FF159A;}
</style>
<g>
	
		<sodipodi:namedview  bordercolor="#666666" borderopacity="1.0" id="base" inkscape:current-layer="layer1" inkscape:cx="588.37515" inkscape:cy="304.47424" inkscape:document-units="mm" inkscape:pageopacity="0.0" inkscape:pageshadow="2" inkscape:window-height="1017" inkscape:window-maximized="1" inkscape:window-width="1920" inkscape:window-x="-8" inkscape:window-y="-8" inkscape:zoom="0.35" pagecolor="#ffffff" showgrid="false">
		</sodipodi:namedview>
	<path class="st0" d="M748.6,60.4l-20.8,52.2l-20.8-52.2h-28.6l34.7,75.8c1.7,3.5,0.5,6.3-4.2,6.3h-26.2v22h28.5
		c14.4,0,20.9-5,24.7-13l39.7-90.9L748.6,60.4z"/>
	<path class="st0" d="M45.1,120.5c-12.5,0-19.9-7.8-19.9-19s7.5-19,19.9-19c9.5,0,16.2,4.7,18.6,12.1h25.7
		c-3-21.6-20.1-35.8-44.4-35.8C18.4,58.8,0,76.1,0,101.5c0,25.4,18.4,42.7,45.1,42.7c24.2,0,41.6-14.4,44.5-36H63.9
		C61.5,115.6,54.8,120.5,45.1,120.5z"/>
	<path class="st0" d="M352.6,59.3c-5.2,0.1-10.2,1.2-15,3.3c-4.7,2.1-8.9,5.2-12.4,9c-4.8-7.7-13.2-12.4-27.1-12.4
		c-4.6-0.1-9.1,0.9-13.2,2.8c-4.1,1.9-7.8,4.7-10.7,8.3v-10h-24.8v82.2h24.8v-41.9c0-14.4,7.1-17.9,16.6-17.9
		c10.1,0,15.6,4.7,15.6,17.9v41.9h24.8v-41.9c0-14.4,7.1-17.9,16.6-17.9c10.1,0,15.6,4.7,15.6,17.9v41.9h24.8v-41.9
		C388.4,77.6,380,59.3,352.6,59.3z"/>
	<path class="st0" d="M443.8,58.8c-26.6,0-45.1,17.3-45.1,42.7c0,25.4,18.4,42.7,45.1,42.7c26.6,0,44.9-17.3,44.9-42.7
		C488.7,76.1,470.4,58.8,443.8,58.8z M443.8,120.5c-12.5,0-19.9-7.8-19.9-19s7.5-19,19.9-19c12.3,0,19.8,7.8,19.8,19
		S456.1,120.5,443.8,120.5z"/>
	<path class="st0" d="M545.1,59.3c-4-0.1-8,0.7-11.7,2.3c-3.7,1.6-6.9,4-9.6,7.1v-8.3H499v82.2h24.8v-41.9
		c0-14.4,7.1-17.9,16.6-17.9c10.1,0,15.6,4.7,15.6,17.9v41.9h24.8v-41.9C580.8,77.6,572.5,59.3,545.1,59.3z"/>
	<path class="st0" d="M653,115.6c-2.8,4.4-8.5,6.2-16.8,6.2c-10.1,0-17.7-5.6-20.2-14.2h65.1v-6.1c0-25.3-18.3-42.7-44.9-42.7
		c-26.6,0-45.1,17.3-45.1,42.7c0,25.4,18.4,42.7,45.1,42.7c21.5,0,39.6-11.1,43.5-28.6L653,115.6z M636.2,79c8.8,0,17,4.7,19.7,13.4
		h-39.6C618.7,83.9,627.2,79,636.2,79z"/>
	<path class="st1" d="M195.1,110.2l3.1,0.2c9.1,28.7-3.7,63.1-30,76.8v0.3c25.8-2.3,59.5-28.7,61.5-69.3l3.8-0.5v-6.3
		c-7.8-4.3-12.9-22.1-2-31.6c-1.9-23.8-12.2-47.5-25.3-64L182.7,2.1l-3.6,7.5c-3.1,1.8-5.7,4.5-7.3,7.7c-1.6,3.2-2.2,6.9-1.8,10.4
		c1.1,8.6,7.3,13.9,18.6,15.6c5.8,0.9,8,3.4,9,6.7c1,3.5,0.7,7.1-2.1,9.2l0.5,1.5c5.1,0.3,7.7,3.1,8.8,7.2c1.3,4.8,0.9,8.8-3.1,11.6
		l0.2,1.3c4.7,1.6,7.3,6.2,7.4,10.9c0.2,4.9-3.4,9.8-8.8,11.9c-1.8,0.7-7.1,1.8-7.1,1.8L195.1,110.2z M189.1,36.1
		c-7.1,1-11.7-3.1-12.6-9.1c-0.9-6.6,2.5-11.8,9.6-12.8c6.8-0.9,11.7,3.1,12.7,9.7C199.6,30,195.9,35.2,189.1,36.1z"/>
	<path class="st0" d="M180.6,116.1c0-14.9-10.3-24.4-29.3-24.4H126c-3,0-6.1-2-6.1-5.7c0-3.4,3-5.1,6-5.1h52.4V60.4H128
		c-20.8,0-30,11.2-30,25.7c0,13.4,9.1,24.6,30,24.6h25.3c0.8,0,1.5,0.1,2.2,0.4c0.7,0.3,1.4,0.7,1.9,1.2c0.5,0.5,1,1.2,1.2,1.9
		c0.3,0.7,0.4,1.5,0.4,2.2c0,0.8-0.2,1.5-0.5,2.2c-0.3,0.7-0.8,1.3-1.3,1.8c-0.6,0.5-1.2,0.9-1.9,1.2c-0.7,0.3-1.5,0.4-2.2,0.3
		h-52.5v20.5h50.7C170.3,142.6,180.6,132.9,180.6,116.1z"/>
</g>
</svg>
