<svg id="Layer_1" data-name="Layer 1" xmlns="http://www.w3.org/2000/svg" viewBox="0 0 200 30"><defs><style>.cls-1{fill:#00a767;}.cls-2{fill:#fff;}</style></defs><polygon class="cls-1" points="131.87 17.23 130.46 17.23 130.46 25.72 135.48 25.72 135.48 24.47 131.87 24.47 131.87 17.23"/><path class="cls-1" d="M121.44,17.23l-1.1,1.18v6.13l1.1,1.18H125l1.1-1.18V18.41L125,17.23Zm3.22,7.24h-2.9v-6h2.9Z"/><polygon class="cls-1" points="129.56 5.53 131.81 5.53 131.81 12.77 133.23 12.77 133.23 5.53 135.5 5.53 135.5 4.28 129.56 4.28 129.56 5.53"/><polygon class="cls-1" points="125.73 11.52 121.77 11.52 121.77 9.08 124.92 9.08 124.92 7.83 121.77 7.83 121.77 5.53 125.73 5.53 125.73 4.28 120.34 4.28 120.34 12.77 125.73 12.77 125.73 11.52"/><polygon class="cls-1" points="111.5 17.23 110.4 18.41 110.4 24.54 111.5 25.72 115.05 25.72 116.14 24.54 116.14 22.46 114.72 22.46 114.72 24.47 111.82 24.47 111.82 18.48 114.72 18.48 114.72 20.47 116.14 20.47 116.14 18.41 115.05 17.23 111.5 17.23"/><path class="cls-1" d="M116,11.59V9.15l-.65-.68.65-.69V5.46l-1.1-1.18H110.4v8.49h4.53Zm-1.41-.07h-2.81V9.08h2.81Zm0-3.69h-2.81V5.53h2.81Z"/><polygon class="cls-1" points="168.03 18.48 170.28 18.48 170.28 25.72 171.71 25.72 171.71 18.48 173.97 18.48 173.97 17.23 168.03 17.23 168.03 18.48"/><rect class="cls-1" x="178.19" y="17.23" width="1.42" height="8.48"/><path class="cls-1" d="M163.73,7.92V5.46l-1.1-1.18H158.1v8.49h1.41V9.39h1.24l1.79,3.38h1.62l-2-3.57Zm-4.22.22V5.53h2.81V8.14Z"/><polygon class="cls-1" points="187.36 24.35 186.93 24.35 185.4 17.23 183.99 17.23 185.89 25.72 188.32 25.72 190.35 17.23 188.9 17.23 187.36 24.35"/><polygon class="cls-1" points="199.5 18.48 199.5 17.23 194.12 17.23 194.12 25.72 199.5 25.72 199.5 24.47 195.54 24.47 195.54 22.03 198.69 22.03 198.69 20.78 195.54 20.78 195.54 18.48 199.5 18.48"/><polygon class="cls-1" points="153.73 11.52 149.76 11.52 149.76 9.08 152.91 9.08 152.91 7.83 149.76 7.83 149.76 5.53 153.73 5.53 153.73 4.28 148.34 4.28 148.34 12.77 153.73 12.77 153.73 11.52"/><polygon class="cls-1" points="148.52 25.72 153.9 25.72 153.9 24.47 149.94 24.47 149.94 22.03 153.09 22.03 153.09 20.78 149.94 20.78 149.94 18.48 153.9 18.48 153.9 17.23 148.52 17.23 148.52 25.72"/><polygon class="cls-1" points="138.59 5.53 140.84 5.53 140.84 12.77 142.27 12.77 142.27 5.53 144.53 5.53 144.53 4.28 138.59 4.28 138.59 5.53"/><polygon class="cls-1" points="140.9 17.23 139.49 17.23 139.49 25.72 144.51 25.72 144.51 24.47 140.9 24.47 140.9 17.23"/><polygon class="cls-1" points="159.37 17.23 158.27 18.41 158.27 24.54 159.37 25.72 162.92 25.72 164.01 24.54 164.01 22.46 162.59 22.46 162.59 24.47 159.69 24.47 159.69 18.48 162.59 18.48 162.59 20.47 164.01 20.47 164.01 18.41 162.92 17.23 159.37 17.23"/><path class="cls-1" d="M73,15,87.9,29.89,102.83,15,87.9.11Z"/><path class="cls-2" d="M81.77,11.41v7.18h3.9l1-1V15.53L86.07,15l.55-.59v-2l-1-1Zm3.63,6.12H83V15.47H85.4Zm0-3.12H83V12.47H85.4Z"/><polygon class="cls-2" points="94.03 14.15 94.03 12.41 93.08 11.42 90.04 11.42 89.09 12.41 89.09 17.59 90.04 18.59 93.08 18.59 94.03 17.59 94.03 15.83 92.8 15.83 92.8 17.53 90.31 17.53 90.31 12.47 92.8 12.47 92.8 14.15 94.03 14.15"/><path class="cls-2" d="M.5,19.23,2.57,10.7H5l2,8.53H5.46l-.35-1.67H2.32L2,19.23Zm2.1-2.89H4.85L4,12H3.52Z"/><path class="cls-2" d="M14.16,19.23V10.7h4.63l1.14,1.18v3.64l-1.14,1.19H15.61v2.52Zm1.45-3.78h2.86V12H15.61Z"/><path class="cls-2" d="M21.74,19.23l2.07-8.53h2.41l2,8.53H26.7l-.35-1.67H23.56l-.36,1.67Zm2.1-2.89H26.1L25.2,12h-.43Z"/><path class="cls-2" d="M30.53,19.23V10.7h4.65l1.13,1.18v2.48l-1.63,1.29,2.06,3.58H35.08l-1.83-3.4H32v3.4ZM32,14.58h2.87V12H32Z"/><path class="cls-2" d="M38.8,12V10.7h6.06V12H42.54v7.28H41.09V12Z"/><path class="cls-2" d="M52.28,18V11.88l1.13-1.18H57l1.12,1.18V18L57,19.23H53.41ZM53.74,18h2.95V12H53.74Z"/><path class="cls-2" d="M60.94,19.23V10.7h5.37V12H62.39v2.76h3.34V16H62.39v3.27Z"/></svg>