<?xml version="1.0" encoding="UTF-8"?>
<svg id="Layer_1" data-name="Layer 1" xmlns="http://www.w3.org/2000/svg" version="1.1" viewBox="0 0 200 30">
  <defs>
    <style>
      .cls-1 {
        fill: #000;
      }

      .cls-1, .cls-2, .cls-3 {
        stroke-width: 0px;
      }

      .cls-2 {
        fill: #fff;
      }

      .cls-3 {
        fill: #00a767;
      }
    </style>
  </defs>
  <path class="cls-3" d="M131.9,17.2h-1.4v8.5h5.1v-1.3h-3.6v-7.3Z"/>
  <path class="cls-3" d="M121.3,17.2l-1.1,1.2v6.2l1.1,1.2h3.6l1.1-1.2v-6.2l-1.1-1.2h-3.6ZM124.6,24.5h-2.9v-6h2.9v6Z"/>
  <path class="cls-3" d="M129.5,5.5h2.3v7.3h1.4v-7.3h2.3v-1.3h-6v1.3Z"/>
  <path class="cls-3" d="M125.7,11.5h-4v-2.4h3.2v-1.3h-3.2v-2.3h4v-1.3h-5.4v8.5h5.4v-1.3Z"/>
  <path class="cls-3" d="M111.3,17.2l-1.1,1.2v6.2l1.1,1.2h3.6l1.1-1.2v-2.1h-1.4v2h-2.9v-6h2.9v2h1.4v-2.1l-1.1-1.2h-3.6Z"/>
  <path class="cls-3" d="M115.9,11.6v-2.5l-.7-.7.7-.7v-2.3l-1.1-1.2h-4.6v8.6h4.6l1.1-1.2h0ZM114.5,11.5h-2.8v-2.5h2.8v2.5ZM114.5,7.8h-2.8v-2.3h2.8v2.3Z"/>
  <path class="cls-3" d="M168.3,18.5h2.3v7.3h1.4v-7.3h2.3v-1.3h-6v1.3Z"/>
  <path class="cls-3" d="M179.9,17.2h-1.4v8.5h1.4v-8.5Z"/>
  <path class="cls-3" d="M164,7.9v-2.5l-1.1-1.2h-4.6v8.5h1.4v-3.4h1.2l1.8,3.4h1.6l-2-3.6,1.6-1.3h0ZM159.7,8.1v-2.6h2.8v2.6h-2.8Z"/>
  <path class="cls-3" d="M187.8,24.4h-.4l-1.5-7.2h-1.4l1.9,8.5h2.5l2-8.5h-1.5l-1.6,7.2Z"/>
  <path class="cls-3" d="M200,18.5v-1.3h-5.4v8.5h5.4v-1.3h-4v-2.5h3.2v-1.3h-3.2v-2.3h4Z"/>
  <path class="cls-3" d="M153.9,11.5h-4v-2.4h3.2v-1.3h-3.2v-2.3h4v-1.3h-5.4v8.5h5.4v-1.3Z"/>
  <path class="cls-3" d="M148.6,25.8h5.4v-1.3h-4v-2.5h3.2v-1.3h-3.2v-2.3h4v-1.3h-5.4v8.5Z"/>
  <path class="cls-3" d="M138.6,5.5h2.3v7.3h1.4v-7.3h2.3v-1.3h-6v1.3Z"/>
  <path class="cls-3" d="M140.9,17.2h-1.4v8.5h5.1v-1.3h-3.7v-7.3Z"/>
  <path class="cls-3" d="M159.6,17.2l-1.1,1.2v6.2l1.1,1.2h3.6l1.1-1.2v-2.1h-1.4v2h-2.9v-6h2.9v2h1.4v-2.1l-1.1-1.2h-3.6Z"/>
  <path class="cls-3" d="M72.5,15l15,15,15-15L87.6,0l-15,15Z"/>
  <path class="cls-2" d="M81.4,11.4v7.2h3.9l1-1v-2.1l-.6-.6.6-.6v-2l-1-1h-3.9ZM85,17.5h-2.4v-2.1h2.4v2.1ZM85,14.4h-2.4v-2h2.4v2Z"/>
  <path class="cls-2" d="M93.7,14.1v-1.8l-1-1h-3.1l-.9,1v5.2l.9,1h3.1l1-1v-1.8h-1.2v1.7h-2.5v-5.1h2.5v1.7h1.2Z"/>
  <path class="cls-1" d="M0,19.3l2.1-8.6h2.4l2,8.6h-1.5l-.3-1.7H1.8l-.4,1.7H0ZM2.1,16.3h2.3l-.9-4.4h-.4l-.9,4.4Z"/>
  <path class="cls-1" d="M13.8,19.3v-8.6h4.7l1.1,1.2v3.7l-1.1,1.2h-3.2v2.5h-1.5ZM15.2,15.4h2.9v-3.5h-2.9v3.5Z"/>
  <path class="cls-1" d="M21.4,19.3l2.1-8.6h2.4l2,8.6h-1.5l-.4-1.7h-2.8l-.4,1.7h-1.5ZM23.5,16.3h2.3l-.9-4.4h-.4l-.9,4.4Z"/>
  <path class="cls-1" d="M30.3,19.3v-8.6h4.7l1.1,1.2v2.5l-1.7,1.3,2.1,3.6h-1.7l-1.8-3.4h-1.3v3.4h-1.5ZM31.7,14.6h2.9v-2.6h-2.9v2.6Z"/>
  <path class="cls-1" d="M38.6,11.9v-1.3h6.1v1.3h-2.3v7.3h-1.5v-7.3h-2.3Z"/>
  <path class="cls-1" d="M52.2,18.1v-6.2l1.1-1.2h3.6l1.1,1.2v6.2l-1.1,1.2h-3.6l-1.1-1.2ZM53.6,18h3v-6.1h-3v6.1Z"/>
  <path class="cls-1" d="M60.9,19.3v-8.6h5.4v1.3h-3.9v2.8h3.4v1.3h-3.4v3.3h-1.5Z"/>
</svg>