<?xml version="1.0" encoding="UTF-8"?>
<svg id="Ebene_2" data-name="Ebene 2" xmlns="http://www.w3.org/2000/svg" viewBox="0 0 731.01 88.08">
  <defs>
    <style>
      .cls-1 {
        fill: #fa490a;
      }

      .cls-2 {
        fill: #1d2021;
      }
    </style>
  </defs>
  <g id="Layer_1" data-name="Layer 1">
    <g>
      <polygon class="cls-2" points="119.15 41.45 151.38 86.43 174.18 86.43 141.95 41.45 119.15 41.45"/>
      <polygon class="cls-2" points="100.3 1.93 100.3 86.43 119.15 86.43 119.15 41.45 119.15 1.93 100.3 1.93"/>
      <rect class="cls-1" x="150.82" y="1.93" width="21.89" height="21.89"/>
      <path class="cls-2" d="m202.83,1.93h18.86v84.49h-18.86V1.93Zm115.68,54.39L277.05,1.93h-17.65v84.49h18.86v-52.94l40.25,52.94h18.86V1.93h-18.86v54.39ZM41.76,35.72c-8.02-1.97-13.14-3.69-15.35-5.14-2.22-1.45-3.32-3.4-3.32-5.86s.91-4.43,2.72-5.92c1.81-1.49,4.29-2.24,7.43-2.24,7.82,0,15.39,2.78,22.72,8.34l9.55-13.78c-4.19-3.55-9.11-6.29-14.75-8.22-5.64-1.93-11.28-2.9-16.92-2.9-8.62,0-15.82,2.18-21.58,6.53C6.51,10.88,3.63,17.06,3.63,25.08s2.28,13.9,6.83,17.65c4.55,3.75,11.74,6.79,21.58,9.13,6.2,1.53,10.35,3.04,12.45,4.53,2.09,1.49,3.14,3.51,3.14,6.04s-.99,4.55-2.96,6.04c-1.98,1.49-4.7,2.24-8.16,2.24-7.74,0-16.16-3.99-25.26-11.97L0,72.53c10.72,9.91,22.76,14.87,36.14,14.87,9.27,0,16.74-2.36,22.42-7.07,5.68-4.71,8.52-10.86,8.52-18.43s-2.22-13.34-6.65-17.29c-4.43-3.95-10.66-6.91-18.68-8.88Zm505.26,8.58c.02-24.37-19.54-44.01-43.85-44.01-24.3,0-43.85,19.65-43.82,44.05.03,24.27,19.57,43.76,43.84,43.75,24.24-.01,43.81-19.56,43.84-43.78Zm-18.4-.21c.08,14.08-11.52,25.82-25.47,25.79-13.97-.04-25.49-11.74-25.43-25.84.06-14.03,11.48-25.42,25.48-25.41,14.01,0,25.34,11.36,25.42,25.46ZM731.01,1.98h-23.76s-18.86,0-18.86,0h0s-25.75,0-25.75,0v16.65h25.75v67.8h18.86V18.63h23.76V1.98Zm-289.84,30.31c0,20.43-13.2,32.15-34.98,32.15h-12.26v21.99h-18.86V1.98l30.09.03c22.42,0,36,11.04,36,30.28Zm-18.12.93c0-6.39-3.04-14.65-19.38-14.65h-9.74v29.29h10.77c14.68,0,18.35-8.26,18.35-14.65Zm-303.9,8.23l32.23,44.98h22.8l-32.23-44.98h-22.8ZM100.3,1.93v84.49h18.86V1.93h-18.86Zm521.95,84.49l-15.79-22.03c-.35,0-.68.04-1.04.04h-12.25v22h-18.86V1.93l30.08.07c22.42,0,36,11.04,36,30.28,0,13.09-5.45,22.58-15.07,27.73l18.93,26.41h-22Zm-29.08-38.56h10.76c14.68,0,18.35-8.26,18.35-14.65s-3.04-14.65-19.38-14.65h-9.73v29.29Z"/>
    </g>
  </g>
</svg>